<svg id="Layer_1" data-name="Layer 1" xmlns="http://www.w3.org/2000/svg" viewBox="0 0 1080 1080"><defs><style>.cls-1,.cls-2{fill:#fff;stroke:#fff;stroke-miterlimit:10;}.cls-2{stroke-width:7.84px;}</style></defs><path class="cls-1" d="M1002.27,598.18C956.42,629.5,918,641.57,885.14,635.1c-45.1-8.87-70.27-50.28-92.46-86.82-17.74-29.24-34.48-56.9-57.5-63.51a5,5,0,0,1-.76-.21l-1.22-.29c-15.63-3.6-34.73,2.05-58.42,17.33-66.1,42.59-121.43,56.79-164.43,42.21-1.26-.43-2.51-.89-3.76-1.36-41.68-16-55.85-54.45-58.47-62.71-.1-.33-.24-.66-.37-1L390.41,333.4l-1.11-2.82-24-60.7c-19.19-48.65-42.54-74.54-69.4-76.9-45.46-4-98.17,57.56-122.85,93.11a15.65,15.65,0,0,1-25.62-18c23-32.94,85.56-112.18,151.21-106.4,39.67,3.52,71.9,36.06,95.82,96.66l14.91,37.72,2.38,6.06,66,167.06.21.86c.34,1.19,9.29,31.55,40.31,43.26,33.19,12.5,81.45-.66,139.56-38.09,31.15-20.08,58.13-27.12,82.44-21.53.84.21,1.68.41,2.51.65l2,.54c34.2,10.27,54.81,44.21,74.8,77.11,20.64,34,40.14,66.11,71.65,72.32,24,4.72,55.33-6,93.41-32a15.65,15.65,0,0,1,21.49,3.52l.06.06A15.67,15.67,0,0,1,1002.27,598.18Z"/><path class="cls-1" d="M409.21,794.49c-70.68-24-116.38-83-132.92-143-21-76.22-1.28-174.78,87-231.92a19.12,19.12,0,0,1,27.17,7.24h0A19.25,19.25,0,0,1,383.79,452c-76.5,49.48-86.44,131.48-70.52,189.3,16.87,61.24,73.08,130.91,176,125.8,47.32-2.8,92-26,122.29-63.66a171.85,171.85,0,0,0,38-116.5A19.1,19.1,0,0,1,665.69,567h0a19.11,19.11,0,0,1,22.11,17.67,210.27,210.27,0,0,1-46.43,142.77c-37.1,46.06-91.8,74.45-150.07,77.89C461.1,806.87,433.65,802.78,409.21,794.49Z"/><path class="cls-1" d="M486.44,563.71c-10.83,3.92-34,15.32-44.52,43.65A7.06,7.06,0,0,1,430.25,610c-12.91-13.31-40.69-37.32-80.94-47.55a7,7,0,0,0-8.13,4,22.42,22.42,0,0,0-.87,2.46,7,7,0,0,0,5,8.74c13.24,3.45,46,15.06,80.87,50.82a7.06,7.06,0,0,1,1.86,6.31,75.53,75.53,0,0,1-37.19,50.61,7,7,0,0,0-3.25,8.12c.19.63.38,1.28.58,1.93a7.06,7.06,0,0,0,9.94,4.23c11.49-5.74,32.82-19.57,40.44-45.81a7,7,0,0,1,11.61-3.16c17,16.38,56.58,48.59,109.16,53.94a7,7,0,0,0,7.83-7.82l-.06-.38a7,7,0,0,0-6-5.73c-15.18-2.08-64.79-12.3-107.68-59.41a7,7,0,0,1-1.57-6.65c2.65-9.47,12.05-33.85,40.65-45.47a7.09,7.09,0,0,0,4-9.18c-.33-.83-.71-1.72-1.14-2.64A7.09,7.09,0,0,0,486.44,563.71Z"/><path class="cls-2" d="M423.28,525.74a24.15,24.15,0,0,0-13.86,14.82,2.29,2.29,0,0,1-3.75,1,57.26,57.26,0,0,0-27-14.32,2.28,2.28,0,0,0-2.59,1.43c-.09.24-.17.51-.25.81a2.3,2.3,0,0,0,1.74,2.78c4.35.93,15.17,4.24,27,15.38a2.3,2.3,0,0,1,.7,2,24.61,24.61,0,0,1-11.38,17,2.28,2.28,0,0,0-.94,2.68c.07.2.14.41.22.62a2.29,2.29,0,0,0,3.28,1.24c3.66-2,10.4-6.83,12.51-15.47a2.28,2.28,0,0,1,3.72-1.19c5.77,5.09,19.08,15,36.25,16a2.29,2.29,0,0,0,2.43-2.65.69.69,0,0,0,0-.13,2.27,2.27,0,0,0-2-1.77c-5-.47-21.24-3.09-35.84-17.8a2.29,2.29,0,0,1-.61-2.14,22.51,22.51,0,0,1,12.58-15.35,2.31,2.31,0,0,0,1.15-3c-.12-.27-.25-.55-.4-.84A2.32,2.32,0,0,0,423.28,525.74Z"/><path class="cls-2" d="M529.45,615.64a24.1,24.1,0,0,0-13.86,14.82,2.29,2.29,0,0,1-3.76,1,57.21,57.21,0,0,0-27-14.31,2.28,2.28,0,0,0-2.59,1.42c-.08.24-.17.52-.24.82a2.29,2.29,0,0,0,1.74,2.77c4.35.93,15.17,4.25,27,15.38a2.29,2.29,0,0,1,.69,2,24.56,24.56,0,0,1-11.37,17,2.28,2.28,0,0,0-.95,2.68c.07.21.15.41.22.62a2.3,2.3,0,0,0,3.29,1.24c3.65-2,10.39-6.83,12.5-15.46a2.29,2.29,0,0,1,3.73-1.2c5.76,5.09,19.08,15,36.24,16a2.29,2.29,0,0,0,2.44-2.65l0-.12a2.26,2.26,0,0,0-2-1.78c-5-.47-21.23-3.09-35.84-17.8a2.28,2.28,0,0,1-.6-2.14,22.53,22.53,0,0,1,12.57-15.35,2.31,2.31,0,0,0,1.16-3c-.12-.27-.26-.55-.41-.84A2.31,2.31,0,0,0,529.45,615.64Z"/><path class="cls-2" d="M378.77,603.56a24.15,24.15,0,0,0-13.86,14.82,2.29,2.29,0,0,1-3.75,1,57.18,57.18,0,0,0-27-14.31,2.28,2.28,0,0,0-2.59,1.42,6.74,6.74,0,0,0-.24.82,2.28,2.28,0,0,0,1.73,2.77c4.35.93,15.17,4.24,27,15.38a2.32,2.32,0,0,1,.7,2,24.61,24.61,0,0,1-11.38,17,2.28,2.28,0,0,0-.94,2.68c.07.21.14.41.22.62A2.29,2.29,0,0,0,352,649c3.66-2,10.4-6.83,12.51-15.46a2.29,2.29,0,0,1,3.72-1.2c5.77,5.09,19.08,15,36.25,16a2.28,2.28,0,0,0,2.43-2.65.5.5,0,0,0,0-.12,2.26,2.26,0,0,0-2-1.78c-5-.47-21.24-3.09-35.84-17.8a2.28,2.28,0,0,1-.6-2.14A22.5,22.5,0,0,1,381,608.51a2.3,2.3,0,0,0,1.15-3c-.11-.27-.25-.55-.4-.84A2.32,2.32,0,0,0,378.77,603.56Z"/><path class="cls-2" d="M488.07,687.93a24.12,24.12,0,0,0-13.86,14.82,2.29,2.29,0,0,1-3.75,1,57.31,57.31,0,0,0-27-14.31,2.26,2.26,0,0,0-2.58,1.42,6.68,6.68,0,0,0-.25.82,2.29,2.29,0,0,0,1.74,2.77c4.35.93,15.17,4.25,27,15.38a2.29,2.29,0,0,1,.69,2,24.56,24.56,0,0,1-11.37,17,2.28,2.28,0,0,0-.94,2.68l.21.62a2.3,2.3,0,0,0,3.29,1.24c3.66-2,10.39-6.83,12.5-15.46a2.29,2.29,0,0,1,3.73-1.2c5.76,5.09,19.08,15,36.24,16a2.29,2.29,0,0,0,2.44-2.65.5.5,0,0,1,0-.12,2.29,2.29,0,0,0-2-1.78c-5-.47-21.23-3.09-35.84-17.8a2.31,2.31,0,0,1-.6-2.14,22.53,22.53,0,0,1,12.57-15.35,2.3,2.3,0,0,0,1.16-3c-.12-.27-.25-.55-.41-.84A2.31,2.31,0,0,0,488.07,687.93Z"/></svg>